<svg width="28" height="28" viewBox="0 0 28 28" fill="none" xmlns="http://www.w3.org/2000/svg">
<rect width="28" height="28" rx="6" fill="black"/>
<path d="M14.0003 14.4999C11.887 14.4999 10.167 12.7799 10.167 10.6666C10.167 8.55325 11.887 6.83325 14.0003 6.83325C16.1137 6.83325 17.8337 8.55325 17.8337 10.6666C17.8337 12.7799 16.1137 14.4999 14.0003 14.4999ZM14.0003 7.83325C12.4403 7.83325 11.167 9.10659 11.167 10.6666C11.167 12.2266 12.4403 13.4999 14.0003 13.4999C15.5603 13.4999 16.8337 12.2266 16.8337 10.6666C16.8337 9.10659 15.5603 7.83325 14.0003 7.83325Z" fill="white"/>
<path d="M19.7267 21.1667C19.4534 21.1667 19.2267 20.94 19.2267 20.6667C19.2267 18.3667 16.8801 16.5 14.0001 16.5C11.1201 16.5 8.77344 18.3667 8.77344 20.6667C8.77344 20.94 8.54677 21.1667 8.27344 21.1667C8.0001 21.1667 7.77344 20.94 7.77344 20.6667C7.77344 17.82 10.5668 15.5 14.0001 15.5C17.4335 15.5 20.2267 17.82 20.2267 20.6667C20.2267 20.94 20.0001 21.1667 19.7267 21.1667Z" fill="white"/>
</svg>
