<svg width="27" height="20" viewBox="0 0 27 20" fill="none" xmlns="http://www.w3.org/2000/svg">
<path d="M8.40007 11.2252C6.18103 11.2252 4.375 9.41915 4.375 7.20012C4.375 4.98108 6.18103 3.17505 8.40007 3.17505C10.6191 3.17505 12.4251 4.98108 12.4251 7.20012C12.4251 9.41915 10.6191 11.2252 8.40007 11.2252ZM8.40007 4.22507C6.76204 4.22507 5.42502 5.56209 5.42502 7.20012C5.42502 8.83814 6.76204 10.1752 8.40007 10.1752C10.0381 10.1752 11.3751 8.83814 11.3751 7.20012C11.3751 5.56209 10.0381 4.22507 8.40007 4.22507Z" fill="black"/>
<path d="M14.4135 18.2252C14.1265 18.2252 13.8885 17.9872 13.8885 17.7002C13.8885 15.2852 11.4245 13.3252 8.40044 13.3252C5.37636 13.3252 2.91232 15.2852 2.91232 17.7002C2.91232 17.9872 2.67432 18.2252 2.38731 18.2252C2.10031 18.2252 1.8623 17.9872 1.8623 17.7002C1.8623 14.7112 4.79535 12.2751 8.40044 12.2751C12.0055 12.2751 14.9385 14.7112 14.9385 17.7002C14.9385 17.9872 14.7005 18.2252 14.4135 18.2252Z" fill="black"/>
<path d="M22.1576 15.0399C21.4576 15.0399 20.8089 14.9139 20.2116 14.6619C19.6143 14.4006 19.0916 14.0412 18.6436 13.5839C18.2049 13.1266 17.8643 12.5946 17.6216 11.9879C17.3789 11.3812 17.2576 10.7326 17.2576 10.0419C17.2576 9.3419 17.3789 8.68857 17.6216 8.0819C17.8643 7.47524 18.2049 6.9479 18.6436 6.4999C19.0916 6.04257 19.6096 5.6879 20.1976 5.4359C20.7949 5.17457 21.4436 5.0439 22.1436 5.0439C22.9089 5.0439 23.5809 5.17457 24.1596 5.4359C24.7383 5.69724 25.2516 6.0519 25.6996 6.4999L24.7896 7.4099C24.4816 7.06457 24.1036 6.7939 23.6556 6.5979C23.2169 6.4019 22.7129 6.3039 22.1436 6.3039C21.6303 6.3039 21.1589 6.39724 20.7296 6.5839C20.3003 6.76124 19.9269 7.0179 19.6096 7.3539C19.2923 7.6899 19.0449 8.08657 18.8676 8.5439C18.6996 9.00124 18.6156 9.50057 18.6156 10.0419C18.6156 10.5832 18.6996 11.0826 18.8676 11.5399C19.0449 11.9972 19.2923 12.3939 19.6096 12.7299C19.9269 13.0659 20.3003 13.3272 20.7296 13.5139C21.1589 13.6912 21.6303 13.7799 22.1436 13.7799C22.7503 13.7799 23.2776 13.6819 23.7256 13.4859C24.1736 13.2806 24.5516 13.0052 24.8596 12.6599L25.7696 13.5559C25.3216 14.0226 24.7943 14.3866 24.1876 14.6479C23.5903 14.9092 22.9136 15.0399 22.1576 15.0399Z" fill="black"/>
</svg>
