<svg width="28" height="18" viewBox="0 0 28 18" fill="none" xmlns="http://www.w3.org/2000/svg">
<g clip-path="url(#clip0_471_5212)">
<path d="M8.87222 10.1534C6.68684 10.1534 4.9082 8.37474 4.9082 6.18936C4.9082 4.00398 6.68684 2.22534 8.87222 2.22534C11.0576 2.22534 12.8362 4.00398 12.8362 6.18936C12.8362 8.37474 11.0576 10.1534 8.87222 10.1534ZM8.87222 3.25943C7.25904 3.25943 5.94229 4.57617 5.94229 6.18936C5.94229 7.80254 7.25904 9.11928 8.87222 9.11928C10.4854 9.11928 11.8021 7.80254 11.8021 6.18936C11.8021 4.57617 10.4854 3.25943 8.87222 3.25943Z" fill="black"/>
<path d="M14.7944 17.0473C14.5117 17.0473 14.2773 16.813 14.2773 16.5303C14.2773 14.1519 11.8507 12.2216 8.87256 12.2216C5.89434 12.2216 3.46768 14.1519 3.46768 16.5303C3.46768 16.813 3.23329 17.0473 2.95064 17.0473C2.66799 17.0473 2.43359 16.813 2.43359 16.5303C2.43359 13.5866 5.32215 11.1875 8.87256 11.1875C12.4229 11.1875 15.3114 13.5866 15.3114 16.5303C15.3114 16.813 15.077 17.0473 14.7944 17.0473Z" fill="black"/>
</g>
<path d="M22.5069 14.14C21.8256 14.14 21.1862 14.014 20.5889 13.762C20.0009 13.5007 19.4829 13.1413 19.0349 12.684C18.5962 12.2267 18.2509 11.6947 17.9989 11.088C17.7469 10.4813 17.6209 9.828 17.6209 9.128C17.6209 8.428 17.7469 7.77933 17.9989 7.182C18.2509 6.57533 18.6009 6.04333 19.0489 5.586C19.4969 5.12867 20.0196 4.774 20.6169 4.522C21.2236 4.27 21.8816 4.144 22.5909 4.144C23.3656 4.144 24.0796 4.29333 24.7329 4.592C25.3862 4.89067 25.9322 5.32 26.3709 5.88L25.4609 6.79C25.1529 6.342 24.7469 6.00133 24.2429 5.768C23.7389 5.52533 23.1882 5.404 22.5909 5.404C21.8816 5.404 21.2516 5.56267 20.7009 5.88C20.1596 6.19733 19.7349 6.636 19.4269 7.196C19.1282 7.756 18.9789 8.4 18.9789 9.128C18.9789 9.86533 19.1329 10.514 19.4409 11.074C19.7489 11.634 20.1642 12.0727 20.6869 12.39C21.2096 12.7073 21.8069 12.866 22.4789 12.866C23.1602 12.866 23.7482 12.7353 24.2429 12.474C24.7469 12.2127 25.1342 11.83 25.4049 11.326C25.6756 10.8127 25.8109 10.1873 25.8109 9.45L26.6089 10.024H22.4089V8.82H27.1689V9.016C27.1689 10.1453 26.9682 11.0927 26.5669 11.858C26.1749 12.614 25.6242 13.1833 24.9149 13.566C24.2149 13.9487 23.4122 14.14 22.5069 14.14Z" fill="black"/>
<defs>
<clipPath id="clip0_471_5212">
<rect width="16.5455" height="16.5455" fill="white" transform="translate(0.599609 1.36353)"/>
</clipPath>
</defs>
</svg>
